<?xml version="1.0" encoding="UTF-8" standalone="no"?>
<svg
   fill="none"
   viewBox="0 0 256 256"
   version="1.1"
   id="svg1"
   sodipodi:docname="porokhico.svg"
   xml:space="preserve"
   inkscape:version="1.4.2 (f4327f4, 2025-05-13)"
   width="256"
   height="256"
   xmlns:inkscape="http://www.inkscape.org/namespaces/inkscape"
   xmlns:sodipodi="http://sodipodi.sourceforge.net/DTD/sodipodi-0.dtd"
   xmlns="http://www.w3.org/2000/svg"
   xmlns:svg="http://www.w3.org/2000/svg"><defs
     id="defs1"><inkscape:path-effect
       effect="fillet_chamfer"
       id="path-effect1"
       is_visible="true"
       lpeversion="1"
       nodesatellites_param="F,0,0,1,0,32,0,1 @ F,0,0,1,0,32,0,1 @ F,0,0,1,0,32,0,1 @ F,0,0,1,0,32,0,1"
       radius="32"
       unit="px"
       method="auto"
       mode="F"
       chamfer_steps="1"
       flexible="false"
       use_knot_distance="true"
       apply_no_radius="true"
       apply_with_radius="true"
       only_selected="false"
       hide_knots="false" /></defs><sodipodi:namedview
     id="namedview1"
     pagecolor="#ffffff"
     bordercolor="#000000"
     borderopacity="0.25"
     inkscape:showpageshadow="2"
     inkscape:pageopacity="0.0"
     inkscape:pagecheckerboard="0"
     inkscape:deskcolor="#d1d1d1"
     inkscape:zoom="1.47"
     inkscape:cx="174.82993"
     inkscape:cy="172.44898"
     inkscape:window-width="1920"
     inkscape:window-height="974"
     inkscape:window-x="-11"
     inkscape:window-y="-11"
     inkscape:window-maximized="1"
     inkscape:current-layer="svg1" /><path
     id="path18"
     style="display:none;fill:#008080;stroke-width:3.44825"
     d="m 1916.0121,1772.2814 c -157.0191,-0.5362 -249.7344,-0.034 -249.2168,1.3887 1.3645,3.7093 291.2402,347.2557 293.1543,347.4316 0.9745,0.09 1.7715,-33.911 1.7715,-75.5586 v -75.7207 l 89.1758,0.8282 c 76.2342,0.7111 91.2207,1.4298 103.2675,4.957 34.7832,10.1844 62.9604,30.8439 74.6289,54.7148 4.8207,9.8619 5.7715,15.3168 5.7715,33.0684 0,19.1447 -0.6963,22.5174 -6.998,33.8945 -13.5189,24.4064 -39.8398,42.2178 -78.043,52.8164 -18.7757,5.2086 -20.4133,5.2528 -251.83,6.5118 l -232.9259,1.2656 46.5586,96.8554 c 45.1875,94.0022 97.5123,202.7646 141.4864,294.1133 h 108.3652 l 0.5704,-198.4453 h 91.541 c 99.7029,0 130.6532,-2.2719 179.9335,-13.207 36.2494,-8.0437 64.524,-17.5817 94.6524,-31.9375 67.9697,-32.3866 116.6194,-77.4009 145.252,-134.3867 60.2223,-119.857 17.2972,-254.2756 -106.5138,-333.5567 -31.0456,-19.8799 -85.135,-41.4256 -128.5078,-51.1914 -58.4754,-13.1664 -52.6165,-12.9211 -322.0937,-13.8418 z m -28.373,848.8965 c 31.7394,65.9027 54.6289,113.3749 59.6699,123.7266 l 13.2344,27.168 0.4297,-150.8946 z" /><path
     style="fill:#000000;stroke-width:18.0883;stroke-linecap:round;stroke-linejoin:round"
     id="rect1"
     width="256"
     height="256"
     x="0"
     y="0"
     inkscape:path-effect="#path-effect1"
     sodipodi:type="rect"
     d="m 32,0 h 192 a 32,32 45 0 1 32,32 v 192 a 32,32 135 0 1 -32,32 H 32 A 32,32 45 0 1 0,224 V 32 A 32,32 135 0 1 32,0 Z" /><path
     d="m 78.347519,68.000887 19.286364,22.991292 h 13.903857 32.4852 a 11.495759,11.495759 0 0 1 0.0297,0 11.495759,11.495759 0 0 1 0.0296,0 11.495759,11.495759 0 0 1 11.46623,11.495521 11.495759,11.495759 0 0 1 -11.49576,11.49576 h -9.04795 a 11.495759,11.495759 0 0 1 -0.0898,0 H 111.53771 77.460719 l 11.16276,22.99082 v 0.002 0 L 113.39727,188 v 0 -51.02567 h 30.65472 a 34.487278,34.487278 0 0 0 12.7888,-2.45892 34.487278,34.487278 0 0 0 11.38845,-7.43537 34.487278,34.487278 0 0 0 9.5568,-17.79716 34.487278,34.487278 0 0 0 0.45167,-2.24621 34.487278,34.487278 0 0 0 0.30157,-4.54939 34.487278,34.487278 0 0 0 -21.69848,-32.028349 34.487278,34.487278 0 0 0 -4.1457,-1.358039 34.487278,34.487278 0 0 0 -0.3876,-0.07492 34.487278,34.487278 0 0 0 -3.88951,-0.747793 34.487278,34.487278 0 0 0 -1.26824,-0.08178 A 34.487278,34.487278 0 0 0 144.052,68 H 97.633403 Z"
     style="fill:#ffffff;stroke-width:1.61166;stroke-linecap:round;stroke-linejoin:round"
     id="path42" /></svg>
