<?xml version="1.0" encoding="UTF-8" standalone="no"?>
<svg
   fill="none"
   viewBox="0 0 1155 1000"
   version="1.1"
   id="svg1"
   sodipodi:docname="porokh.svg"
   xml:space="preserve"
   inkscape:version="1.4.2 (f4327f4, 2025-05-13)"
   xmlns:inkscape="http://www.inkscape.org/namespaces/inkscape"
   xmlns:sodipodi="http://sodipodi.sourceforge.net/DTD/sodipodi-0.dtd"
   xmlns="http://www.w3.org/2000/svg"
   xmlns:svg="http://www.w3.org/2000/svg"><defs
     id="defs1" /><sodipodi:namedview
     id="namedview1"
     pagecolor="#ffffff"
     bordercolor="#000000"
     borderopacity="0.25"
     inkscape:showpageshadow="2"
     inkscape:pageopacity="0.0"
     inkscape:pagecheckerboard="0"
     inkscape:deskcolor="#d1d1d1"
     inkscape:zoom="0.064965436"
     inkscape:cx="-323.24881"
     inkscape:cy="838.90764"
     inkscape:window-width="1920"
     inkscape:window-height="974"
     inkscape:window-x="-11"
     inkscape:window-y="-11"
     inkscape:window-maximized="1"
     inkscape:current-layer="svg1" /><path
     id="path18"
     style="display:none;fill:#008080;stroke-width:3.44825"
     d="m 1916.0121,1772.2814 c -157.0191,-0.5362 -249.7344,-0.034 -249.2168,1.3887 1.3645,3.7093 291.2402,347.2557 293.1543,347.4316 0.9745,0.09 1.7715,-33.911 1.7715,-75.5586 v -75.7207 l 89.1758,0.8282 c 76.2342,0.7111 91.2207,1.4298 103.2675,4.957 34.7832,10.1844 62.9604,30.8439 74.6289,54.7148 4.8207,9.8619 5.7715,15.3168 5.7715,33.0684 0,19.1447 -0.6963,22.5174 -6.998,33.8945 -13.5189,24.4064 -39.8398,42.2178 -78.043,52.8164 -18.7757,5.2086 -20.4133,5.2528 -251.83,6.5118 l -232.9259,1.2656 46.5586,96.8554 c 45.1875,94.0022 97.5123,202.7646 141.4864,294.1133 h 108.3652 l 0.5704,-198.4453 h 91.541 c 99.7029,0 130.6532,-2.2719 179.9335,-13.207 36.2494,-8.0437 64.524,-17.5817 94.6524,-31.9375 67.9697,-32.3866 116.6194,-77.4009 145.252,-134.3867 60.2223,-119.857 17.2972,-254.2756 -106.5138,-333.5567 -31.0456,-19.8799 -85.135,-41.4256 -128.5078,-51.1914 -58.4754,-13.1664 -52.6165,-12.9211 -322.0937,-13.8418 z m -28.373,848.8965 c 31.7394,65.9027 54.6289,113.3749 59.6699,123.7266 l 13.2344,27.168 0.4297,-150.8946 z" /><path
     d="m 163.72907,0.0057 160.7197,191.5941 h 115.8655 270.7101 a 95.797997,95.797997 0 0 1 0.2482,0 95.797997,95.797997 0 0 1 0.2461,0 95.797997,95.797997 0 0 1 95.5519,95.796 95.797997,95.797997 0 0 1 -95.798,95.798 h -75.3996 a 95.797997,95.797997 0 0 1 -0.74839,0 h -194.8103 -283.9749 l 93.023,191.5901 v 0.01 0 L 455.81057,1000 v 0 -425.2139 h 255.456 a 287.39399,287.39399 0 0 0 106.5733,-20.491 287.39399,287.39399 0 0 0 94.90382,-61.9615 287.39399,287.39399 0 0 0 79.64,-148.3096 287.39399,287.39399 0 0 0 3.76378,-18.7184 287.39399,287.39399 0 0 0 2.51315,-37.9116 A 287.39399,287.39399 0 0 0 817.83987,20.4911 287.39399,287.39399 0 0 0 783.29237,9.1741 287.39399,287.39399 0 0 0 780.06237,8.5498 287.39399,287.39399 0 0 0 747.64977,2.3182 287.39399,287.39399 0 0 0 737.08127,1.6367 287.39399,287.39399 0 0 0 711.26657,0 h -386.8218 z"
     style="fill:#7c3aed;stroke-width:13.4305;stroke-linecap:round;stroke-linejoin:round"
     id="path42" /></svg>
